<svg width="198" height="84" viewBox="0 0 198 84" fill="none" xmlns="http://www.w3.org/2000/svg">
<path d="M99 2.5C126.085 2.5 150.489 7.16196 168.027 14.6025C176.801 18.3248 183.74 22.6939 188.449 27.417C193.148 32.1301 195.5 37.0555 195.5 42C195.5 46.9445 193.148 51.8699 188.449 56.583C183.74 61.3061 176.801 65.6752 168.027 69.3975C150.489 76.838 126.085 81.5 99 81.5C71.9145 81.5 47.5112 76.838 29.9727 69.3975C21.1987 65.6752 14.2597 61.3061 9.55078 56.583C4.85186 51.8699 2.5 46.9445 2.5 42C2.5 37.0555 4.85186 32.1301 9.55078 27.417C14.2597 22.6939 21.1987 18.3248 29.9727 14.6025C47.5112 7.16196 71.9145 2.5 99 2.5Z" stroke="url(#paint0_linear_18_15583)" stroke-width="5"/>
<defs>
<linearGradient id="paint0_linear_18_15583" x1="150.142" y1="12.6" x2="114.748" y2="65.5104" gradientUnits="userSpaceOnUse">
<stop stop-color="#FE942A"/>
<stop offset="1" stop-color="white" stop-opacity="0"/>
</linearGradient>
</defs>
</svg>
