<svg width="18" height="20" viewBox="0 0 18 20" fill="none" xmlns="http://www.w3.org/2000/svg">
<path d="M6.54545 0H1.63636C1.20237 0 0.786157 0.191558 0.47928 0.532533C0.172402 0.873508 0 1.33597 0 1.81818V7.27273C0 7.75494 0.172402 8.2174 0.47928 8.55838C0.786157 8.89935 1.20237 9.09091 1.63636 9.09091H6.54545C6.97944 9.09091 7.39566 8.89935 7.70254 8.55838C8.00942 8.2174 8.18182 7.75494 8.18182 7.27273V1.81818C8.18182 1.33597 8.00942 0.873508 7.70254 0.532533C7.39566 0.191558 6.97944 0 6.54545 0ZM6.54545 7.27273H1.63636V1.81818H6.54545V7.27273ZM16.3636 0H11.4545C11.0206 0 10.6043 0.191558 10.2975 0.532533C9.99058 0.873508 9.81818 1.33597 9.81818 1.81818V7.27273C9.81818 7.75494 9.99058 8.2174 10.2975 8.55838C10.6043 8.89935 11.0206 9.09091 11.4545 9.09091H16.3636C16.7976 9.09091 17.2138 8.89935 17.5207 8.55838C17.8276 8.2174 18 7.75494 18 7.27273V1.81818C18 1.33597 17.8276 0.873508 17.5207 0.532533C17.2138 0.191558 16.7976 0 16.3636 0ZM16.3636 7.27273H11.4545V1.81818H16.3636V7.27273ZM6.54545 10.9091H1.63636C1.20237 10.9091 0.786157 11.1006 0.47928 11.4416C0.172402 11.7826 0 12.2451 0 12.7273V18.1818C0 18.664 0.172402 19.1265 0.47928 19.4675C0.786157 19.8084 1.20237 20 1.63636 20H6.54545C6.97944 20 7.39566 19.8084 7.70254 19.4675C8.00942 19.1265 8.18182 18.664 8.18182 18.1818V12.7273C8.18182 12.2451 8.00942 11.7826 7.70254 11.4416C7.39566 11.1006 6.97944 10.9091 6.54545 10.9091ZM6.54545 18.1818H1.63636V12.7273H6.54545V18.1818ZM16.3636 10.9091H11.4545C11.0206 10.9091 10.6043 11.1006 10.2975 11.4416C9.99058 11.7826 9.81818 12.2451 9.81818 12.7273V18.1818C9.81818 18.664 9.99058 19.1265 10.2975 19.4675C10.6043 19.8084 11.0206 20 11.4545 20H16.3636C16.7976 20 17.2138 19.8084 17.5207 19.4675C17.8276 19.1265 18 18.664 18 18.1818V12.7273C18 12.2451 17.8276 11.7826 17.5207 11.4416C17.2138 11.1006 16.7976 10.9091 16.3636 10.9091ZM16.3636 18.1818H11.4545V12.7273H16.3636V18.1818Z" fill="#4A4A4A"/>
</svg>
