<svg width="124" height="93" viewBox="0 0 124 93" fill="none" xmlns="http://www.w3.org/2000/svg">
<g clip-path="url(#clip0_3281_1799)">
<path d="M61.3549 0L62.5004 2.30583L65.0748 2.68038L63.2149 4.47706L63.6518 7.01114L61.3549 5.8114L59.0521 7.01114L59.495 4.47706L57.635 2.68038L60.2035 2.30583L61.3549 0Z" fill="#FE942A"/>
<path d="M55.1964 2.42285L55.9522 3.93276L57.635 4.17271L56.4186 5.34904L56.7021 7.01111L55.1964 6.22689L53.6966 7.01111L53.98 5.34904L52.7637 4.17271L54.4465 3.93276L55.1964 2.42285Z" fill="#FE942A"/>
<path d="M68.0568 2.42285L68.8067 3.93276L70.4895 4.17271L69.2731 5.34904L69.5565 7.01111L68.0568 6.22689L66.5511 7.01111L66.8345 5.34904L65.6182 4.17271L67.301 3.93276L68.0568 2.42285Z" fill="#FE942A"/>
<path d="M61.6443 83.4429V82.7289C62.0753 82.7289 62.5064 82.7289 62.9315 82.7289V83.437C62.5182 83.4311 62.0812 83.437 61.6443 83.4429ZM60.3335 83.4429C59.8965 83.4429 59.4596 83.4077 59.0285 83.3726L59.0817 82.6645C59.5068 82.6957 59.9319 82.7191 60.3571 82.7347L60.3335 83.4429ZM64.26 83.3726L64.201 82.6586C64.6261 82.6586 65.0572 82.5884 65.4764 82.5416L65.559 83.2497C65.128 83.2673 64.6911 83.3083 64.26 83.3434V83.3726ZM57.7236 83.2497C57.2867 83.2029 56.8556 83.1444 56.4246 83.08L56.5368 82.3777C56.956 82.4362 57.3812 82.4948 57.8063 82.5416L57.7236 83.2497ZM66.8581 83.0742L66.7459 82.3719C67.171 82.3075 67.5902 82.2373 68.0095 82.1553L68.1453 82.8518C67.7201 82.9044 67.2891 82.9688 66.8581 83.0449V83.0742ZM55.1374 82.8576C54.7064 82.7757 54.2812 82.6879 53.8561 82.5884L54.0214 81.8978C54.4348 81.9915 54.854 82.0793 55.2732 82.1612L55.1374 82.8576ZM69.4266 82.5826L69.2612 81.892C69.6805 81.7925 70.0938 81.6871 70.5071 81.5759L70.6961 82.2665C70.2946 82.3485 69.8517 82.4538 69.4266 82.5533V82.5826ZM52.5807 82.2431L51.323 81.8744L51.5415 81.1955C51.9489 81.3243 52.3563 81.4414 52.7696 81.5526L52.5807 82.2431ZM71.9419 81.8686L71.7294 81.1897C72.1368 81.061 72.5383 80.9263 72.9398 80.78L73.1819 81.453C72.7804 81.5993 72.3671 81.734 71.9479 81.8686H71.9419ZM50.0949 81.4589C49.6815 81.3126 49.2741 81.1604 48.8667 80.9966L49.1383 80.3353C49.5339 80.4933 49.9354 80.6454 50.3192 80.7917L50.0949 81.4589ZM74.4219 80.9907L74.1503 80.3294C74.5459 80.1714 74.9356 80.0017 75.3312 79.832L75.6264 80.4816C75.219 80.6571 74.8175 80.8268 74.4278 80.9907H74.4219ZM47.6621 80.4874C47.2606 80.3118 46.865 80.1246 46.4812 79.9022L46.8001 79.2643C47.1839 79.4515 47.5677 79.6329 47.981 79.8085L47.6621 80.4874ZM76.8014 79.9022L76.4826 79.2643L77.6163 78.679L77.9587 79.2994C77.569 79.5393 77.1852 79.7383 76.7896 79.9314L76.8014 79.9022ZM45.3121 79.3169C44.9283 79.1063 44.5445 78.8955 44.1725 78.6732L44.5386 78.0587C44.9047 78.2733 45.2767 78.4839 45.6546 78.6907L45.3121 79.3169ZM79.0924 78.6732L78.7264 78.0587C79.0924 77.8421 79.4585 77.6197 79.8128 77.3915L80.2025 77.9767C79.8305 78.2401 79.4644 78.4683 79.0865 78.6907L79.0924 78.6732ZM43.0743 77.9884C42.7082 77.7543 42.348 77.5085 41.9937 77.2569L42.407 76.6717C42.7554 76.9175 43.1097 77.1516 43.4699 77.3857L43.0743 77.9884ZM81.3067 77.2628L80.8874 76.6775C81.2417 76.4317 81.5842 76.1801 81.9208 75.9226L82.3577 76.5078C81.9916 76.777 81.6373 77.0287 81.2831 77.2803L81.3067 77.2628ZM40.9132 76.5312C40.5668 76.2659 40.2243 75.9967 39.8858 75.7236L40.3463 75.1735C40.6711 75.4485 41.0076 75.7119 41.3501 75.9694L40.9132 76.5312ZM83.3615 75.7294L82.9009 75.1793C83.2316 74.9101 83.5563 74.6351 83.8752 74.3541L84.3535 74.8867C84.0346 75.1598 83.7039 75.4329 83.3615 75.706V75.7294ZM38.8938 74.8808C38.569 74.5941 38.2443 74.2956 37.9313 73.9971L38.4332 73.488C38.7403 73.7806 39.0532 74.0674 39.3721 74.3483L38.8938 74.8808ZM85.3159 74.0088L84.814 73.4938C85.1211 73.2012 85.4045 72.9086 85.7233 72.5984L86.237 73.09C85.9359 73.3768 85.6466 73.6811 85.3159 73.9854V74.0088ZM37.0102 73.0842C36.7032 72.7681 36.4198 72.4521 36.1186 72.1302L36.6559 71.6562C36.9394 71.9722 37.2287 72.2824 37.5239 72.5867L37.0102 73.0842ZM87.1286 72.1361L86.5913 71.662C86.8747 71.346 87.1818 71.0241 87.4298 70.7022L87.9848 71.1529C87.7014 71.4631 87.4179 71.7908 87.1286 72.1127V72.1361ZM35.2684 71.147C35.0007 70.7998 34.7291 70.4486 34.4535 70.0936L35.044 69.6664C35.2979 70 35.5636 70.3335 35.8352 70.6613L35.2684 71.147ZM88.7937 70.0936L88.2033 69.6664C88.4631 69.327 88.717 68.9875 88.9591 68.6364L89.5495 69.0519C89.3192 69.4206 89.0594 69.7717 88.7937 70.0936ZM33.6859 69.0636C33.432 68.7124 33.1899 68.3554 32.9537 67.9926L33.5442 67.6005C33.7745 67.9575 34.0166 68.3086 34.2587 68.6539L33.6859 69.0636ZM90.3112 67.9926L89.7207 67.6063C89.951 67.2494 90.1813 66.8924 90.3998 66.5237L90.9902 66.8924C90.7718 67.2611 90.5415 67.6297 90.3053 67.9926H90.3112ZM32.2629 66.8924C32.0385 66.5178 31.8201 66.1432 31.6134 65.7628L32.2452 65.4234C32.4519 65.798 32.6585 66.1667 32.877 66.5237L32.2629 66.8924ZM91.6516 65.7628L91.0198 65.4117C91.2205 65.0372 91.4213 64.6626 91.6102 64.2822L92.2538 64.5982C92.059 64.9962 91.8582 65.4117 91.6457 65.7628H91.6516ZM31.0111 64.5924C30.8163 64.2061 30.6332 63.8198 30.4502 63.4219L31.1056 63.1293C31.2827 63.5155 31.4658 63.9018 31.6547 64.2997L31.0111 64.5924ZM92.8207 63.4219L92.1653 63.1293C92.3365 62.743 92.5077 62.3509 92.6672 61.9588L93.3344 62.228C93.1631 62.6377 92.9919 63.0708 92.8148 63.4336L92.8207 63.4219ZM29.9424 62.2514C29.7771 61.8535 29.6235 61.4497 29.4759 61.04L30.1491 60.8C30.2967 61.198 30.4443 61.596 30.6037 61.9705L29.9424 62.2514ZM93.7949 61.0224L93.1218 60.7825C93.2635 60.3845 93.3993 59.9807 93.5292 59.5769L94.2142 59.7876C94.0843 60.2031 93.9426 60.6128 93.7949 61.0224ZM29.0449 59.8168C28.915 59.4072 28.791 58.9917 28.6788 58.5703L29.3696 58.383C29.4818 58.7927 29.6058 59.2023 29.7298 59.6003L29.0449 59.8168ZM94.5862 58.5469L93.913 58.3889C94.0252 57.9792 94.1256 57.5695 94.226 57.154L94.9227 57.3179C94.8105 57.71 94.6983 58.1314 94.5862 58.5469ZM28.3718 57.3179C28.2714 56.8965 28.1828 56.4751 28.1001 56.0479L28.8028 55.9133C28.8855 56.3288 28.974 56.7444 29.0685 57.154L28.3718 57.3179ZM95.1766 56.0479L94.474 55.9133C94.5566 55.4978 94.6275 55.0823 94.6924 54.6609L95.401 54.7662C95.3361 55.1701 95.2593 55.5973 95.1766 56.0479ZM27.864 54.8014C27.7931 54.3741 27.74 53.9469 27.6868 53.5138L28.4013 53.4319C28.4485 53.8533 28.5076 54.2746 28.5725 54.6902L27.864 54.8014ZM95.584 53.4846L94.8696 53.4026C94.9168 52.9813 94.9582 52.5599 94.9877 52.1385L95.7021 52.1912C95.6844 52.595 95.6254 53.0222 95.5781 53.4553L95.584 53.4846ZM27.5628 52.2205C27.5274 51.7933 27.5038 51.3602 27.4861 50.9271L28.2064 50.8978C28.2064 51.3251 28.2478 51.7464 28.2773 52.1678L27.5628 52.2205ZM95.7789 50.8978H95.0585C95.0585 50.4765 95.0585 50.0551 95.0585 49.6279L95.773 49.5693V49.6279C95.7966 50.0083 95.7907 50.4414 95.773 50.8686L95.7789 50.8978ZM27.4565 49.6103V49.5811C27.4565 49.1597 27.4565 48.7383 27.4565 48.3169H28.171C28.171 48.7324 28.171 49.1421 28.171 49.5576L27.4565 49.6103ZM95.0526 48.2584C95.0526 47.8312 95.0113 47.4098 94.9759 46.9885L95.6962 46.9299C95.6962 47.363 95.7553 47.7961 95.773 48.2292L95.0526 48.2584ZM28.2714 47.0879L27.551 47.0353C27.5864 46.6022 27.6278 46.1691 27.675 45.7419L28.3895 45.8238C28.3718 46.216 28.3009 46.6373 28.2714 47.0645V47.0879ZM94.8578 45.736C94.8046 45.3147 94.7456 44.8933 94.6806 44.4778L95.3951 44.3666C95.46 44.7938 95.5191 45.221 95.5663 45.6541L94.8578 45.736ZM28.5548 44.5656L27.8462 44.4602C27.9112 44.033 27.988 43.6058 28.0706 43.1844L28.7733 43.319C28.6965 43.6994 28.6198 44.1208 28.5548 44.5363V44.5656ZM94.4622 43.2312C94.3795 42.8157 94.2909 42.4002 94.1964 41.9905L94.8932 41.8267C94.9936 42.248 95.0822 42.6694 95.1707 43.0966L94.4622 43.2312ZM29.039 42.0607L28.3718 41.8852C28.4662 41.4638 28.5725 41.0425 28.6906 40.6269L29.3815 40.8142C29.2397 41.2238 29.1394 41.6335 29.039 42.0432V42.0607ZM93.8776 40.7498C93.7654 40.3401 93.6414 39.9364 93.5115 39.5325L94.1964 39.316C94.3264 39.7256 94.4563 40.1412 94.5684 40.5625L93.8776 40.7498ZM29.7121 39.5969L29.0272 39.3804C29.163 38.9649 29.2988 38.5552 29.4464 38.1514L30.1254 38.3913C29.9778 38.7893 29.842 39.1931 29.7121 39.5969ZM93.0982 38.3094C92.9565 37.9114 92.803 37.5135 92.6435 37.1389L93.3108 36.8697C93.4702 37.2677 93.6296 37.6715 93.7772 38.0811L93.0982 38.3094ZM30.5801 37.1974L29.9129 36.9341C30.0782 36.5303 30.2494 36.1323 30.4266 35.7343L31.082 36.027C30.9107 36.4132 30.7336 36.8053 30.5801 37.1974ZM92.1416 35.9626C91.9645 35.5763 91.7815 35.1959 91.5925 34.7921L92.2361 34.4761C92.431 34.8623 92.614 35.2486 92.8266 35.6466L92.1416 35.9626ZM31.6311 34.8799L30.9875 34.558C31.1824 34.1718 31.3831 33.7855 31.578 33.3875L32.2098 33.727C32.0208 34.1191 31.8201 34.4936 31.6311 34.8799ZM91.0021 33.7094C90.7954 33.3407 90.5828 32.972 90.3644 32.6092L90.9548 32.2405C91.1792 32.615 91.3918 32.9896 91.6043 33.37L91.0021 33.7094ZM32.8593 32.6384L32.2688 32.2756C32.4932 31.9069 32.7235 31.5382 32.9596 31.1753L33.5501 31.5616C33.3021 31.9186 33.0955 32.2756 32.8593 32.6384ZM89.6912 31.5148C89.455 31.1578 89.2189 30.8125 88.9709 30.4672L89.5613 30.0517C89.8152 30.4087 90.0573 30.7657 90.2994 31.1285L89.6912 31.5148ZM34.2764 30.5082L33.6859 30.0985C33.9398 29.7474 34.1996 29.3962 34.4653 29.0509L35.0558 29.484C34.7487 29.8176 34.5008 30.1629 34.2764 30.5082ZM88.2328 29.4431C87.9789 29.1095 87.7132 28.7759 87.4416 28.4481L87.9907 27.9975C88.2682 28.3311 88.5398 28.6647 88.8055 29.01L88.2328 29.4431ZM35.8293 28.4891L35.2743 28.0326C35.5518 27.699 35.8647 27.3713 36.1304 27.0494L36.6678 27.5235C36.3548 27.8395 36.0773 28.1614 35.8057 28.4891H35.8293ZM86.609 27.4884C86.3256 27.1723 86.0186 26.8621 85.7351 26.5578L86.2547 26.0604C86.5559 26.3764 86.8452 26.6924 87.1463 27.0143L86.609 27.4884ZM37.5416 26.5929L37.022 26.0955C37.3291 25.7853 37.6125 25.481 37.9491 25.1825L38.445 25.6917C38.1085 25.9843 37.8192 26.2886 37.5121 26.5929H37.5416ZM84.8317 25.6624C84.5247 25.3639 84.2413 25.0772 83.8929 24.7963L84.3653 24.2637C84.6959 24.5505 85.0148 24.8489 85.3277 25.1474L84.8317 25.6624ZM39.3662 24.8314L38.8879 24.2988C39.2126 24.012 39.5433 23.7136 39.8858 23.4502L40.3404 24.0003C39.998 24.2695 39.6732 24.5446 39.3544 24.8314H39.3662ZM82.9009 23.9711C82.5703 23.7019 82.2337 23.4385 81.8912 23.181L82.3282 22.5958C82.6746 22.8572 83.017 23.1264 83.3556 23.4034L82.9009 23.9711ZM41.3619 23.2103L40.925 22.625C41.2675 22.3617 41.6217 22.1042 41.976 21.8584L42.3893 22.4436C42.0114 22.6894 41.669 22.9586 41.3619 23.2103ZM80.8756 22.4319C80.5273 22.1861 80.173 21.952 79.8128 21.7179L80.2025 21.1327C80.5745 21.3668 80.9347 21.6126 81.289 21.8584L80.8756 22.4319ZM43.4522 21.7472L43.0625 21.162C43.4226 20.9279 43.7946 20.6996 44.1666 20.4772L44.5386 21.0917C44.143 21.2965 43.7769 21.5189 43.4226 21.7472H43.4522ZM78.7264 21.0508L77.6104 20.4187L77.9528 19.7925C78.3366 20.0032 78.7145 20.2139 79.0924 20.4362L78.7264 21.0508ZM45.6605 20.4655L45.318 19.8452C45.6959 19.6345 46.0856 19.4355 46.4989 19.2599L46.8178 19.8978C46.369 20.05 45.9911 20.249 45.6192 20.448L45.6605 20.4655ZM76.4826 19.851C76.0988 19.6637 75.7091 19.4823 75.3017 19.3126L75.5969 18.6571C75.9925 18.8385 76.3881 19.02 76.7778 19.2131L76.4826 19.851ZM47.9515 19.3419L47.6562 18.6923C48.0519 18.5108 48.4475 18.3469 48.8372 18.1831L49.1088 18.8444C48.6896 18.9849 48.2939 19.178 47.9101 19.3243L47.9515 19.3419ZM74.1385 18.8151C73.7429 18.6571 73.3413 18.505 72.9575 18.3587L73.1937 17.6915C73.607 17.8378 74.0204 17.99 74.4219 18.1538L74.1385 18.8151ZM50.3192 18.3879L50.0771 17.7208C50.4708 17.5764 50.8841 17.4359 51.3171 17.2994L51.5356 17.9783C51.0868 18.0895 50.6794 18.2299 50.2779 18.3704L50.3192 18.3879ZM71.7176 17.9548C71.3102 17.8261 70.9027 17.709 70.4894 17.5978L70.6784 16.9073L71.936 17.276L71.7176 17.9548ZM52.7637 17.6213L52.5748 16.9307C52.994 16.8195 53.4132 16.7141 53.8384 16.6147L54.0037 17.3052C53.5589 17.3833 53.1318 17.4828 52.7224 17.6037L52.7637 17.6213ZM69.2494 17.2877C68.8302 17.194 68.4169 17.1063 67.9918 17.0243L68.1276 16.322C68.5586 16.404 68.9837 16.4976 69.4089 16.5912L69.2494 17.2877ZM55.2555 17.0419L55.1197 16.3396C55.5448 16.2577 55.9759 16.1874 56.4069 16.1172L56.5191 16.8253C56.0526 16.8722 55.6334 16.9424 55.2142 17.0243L55.2555 17.0419ZM66.7282 16.8078C66.3089 16.7434 65.8897 16.6907 65.4587 16.6439L65.5413 15.9358C65.9783 15.9826 66.4093 16.0411 66.8404 16.1055L66.7282 16.8078ZM57.7886 16.6556L57.7059 15.9475C58.1369 15.8948 58.5739 15.8539 59.0108 15.8187L59.064 16.5327C58.6113 16.5522 58.1724 16.5873 57.7472 16.6381L57.7886 16.6556ZM64.1833 16.5269C63.7581 16.4918 63.333 16.4683 62.9079 16.4566V15.7427C63.3448 15.7427 63.7818 15.7836 64.2128 15.8129L64.1833 16.5269ZM60.3453 16.4566L60.3158 15.7485C60.7468 15.7485 61.1837 15.7192 61.6207 15.7192V16.4332C61.1542 16.4157 60.7291 16.4215 60.3039 16.4391L60.3453 16.4566Z" fill="#FE942A"/>
<path d="M123.253 39.1814H100.815C98.3006 30.8195 93.1294 23.4858 86.0711 18.2712C79.0128 13.0566 70.4447 10.2397 61.6413 10.2397C52.8379 10.2397 44.2698 13.0566 37.2115 18.2712C30.1532 23.4858 24.982 30.8195 22.4671 39.1814H0.029541L10.5102 49.6103L0.029541 59.9632H21.8766C23.2957 65.929 26.0545 71.5007 29.9475 76.2631C33.8405 81.0256 38.7675 84.8561 44.3614 87.4693L44.7216 86.6968C38.2198 83.6871 32.6537 79.0006 28.6058 73.1277C24.5579 67.2548 22.1772 60.4115 21.7126 53.314C21.2481 46.2164 22.7169 39.1256 25.9653 32.7836C29.2136 26.4416 34.1222 21.0815 40.1772 17.2645C46.2322 13.4474 53.2111 11.3136 60.3834 11.0865C67.5557 10.8593 74.6578 12.5471 80.9463 15.9733C87.2348 19.3994 92.4786 24.4379 96.1289 30.5614C99.7792 36.6849 101.702 43.6683 101.695 50.7808C101.692 53.5829 101.387 56.3766 100.786 59.1146V59.2316C99.337 65.7816 96.2417 71.8624 91.7874 76.9096C87.3332 81.9567 81.6644 85.8065 75.3075 88.1014L75.5969 88.8973C82.0002 86.5882 87.7221 82.7342 92.2457 77.6835C96.7693 72.6328 99.9521 66.5446 101.506 59.969H123.2L112.743 49.6103L123.253 39.1814ZM2.13159 59.1087L11.7266 49.6103L2.07254 40.0359H22.2486C22.0183 40.8552 21.8117 41.6804 21.6582 42.5173C19.8395 42.33 9.65998 42.5933 9.65998 42.5933L16.1551 49.0309L8.42 56.6917H21.2271C21.3452 57.5052 21.4928 58.3128 21.6641 59.1087H2.13159ZM121.127 59.1087H101.642C101.813 58.3128 101.961 57.5052 102.085 56.6917H114.928L107.228 49.0251L113.723 42.5875C113.723 42.5875 103.39 42.3183 101.689 42.5173C101.512 41.6745 101.3 40.8493 101.099 40.03H121.175L111.526 49.6103L121.127 59.1087Z" fill="#FE942A"/>
<path d="M66.9878 41.06L63.8289 44.7411H67.5665L69.1607 42.8801C75.0653 42.0959 76.9076 38.5903 76.9076 38.5903L81.2357 29.484L73.0991 38.4908C73.0049 38.5959 72.8725 38.6599 72.731 38.6686C72.5894 38.6774 72.45 38.6303 72.3433 38.5376C72.2351 38.4496 72.1663 38.3227 72.1519 38.1846C72.1375 38.0465 72.1787 37.9084 72.2666 37.8002L79.7418 28.413C79.7418 28.413 73.7309 34.7629 71.5285 37.1916C71.4335 37.2845 71.3067 37.3386 71.1734 37.3431C71.04 37.3476 70.9098 37.3023 70.8086 37.216C70.7075 37.1297 70.6427 37.0089 70.6273 36.8775C70.6119 36.7461 70.6469 36.6138 70.7254 36.5069L78.4782 27.1431L70.0641 32.7848C70.0641 32.7848 66.852 35.1257 66.9819 41.0366L66.9878 41.06Z" fill="white"/>
<path d="M59.5541 54.0757H54.7654C54.0925 54.1901 53.482 54.5362 53.0413 55.053L43.275 66.4359C43.0213 66.7241 42.828 67.0595 42.7065 67.4226C42.585 67.7857 42.5378 68.1691 42.5674 68.5505C42.5971 68.9319 42.7032 69.3036 42.8794 69.6439C43.0557 69.9842 43.2985 70.2863 43.5939 70.5325C43.8865 70.7819 44.2263 70.9712 44.5934 71.0892C44.9605 71.2073 45.3476 71.2518 45.7322 71.2203C46.1168 71.1887 46.4913 71.0816 46.8337 70.9052C47.1762 70.7289 47.4799 70.4868 47.7271 70.1931L57.4934 58.8161C57.8315 58.4247 58.058 57.9509 58.1494 57.4436C58.2407 56.9363 58.1936 56.4141 58.013 55.9309L59.5541 54.0757ZM46.1683 68.9231C46.0504 69.0591 45.8945 69.1573 45.7204 69.2055C45.5462 69.2537 45.3615 69.2497 45.1896 69.194C45.0177 69.1382 44.8664 69.0333 44.7546 68.8923C44.6429 68.7514 44.5758 68.5808 44.5618 68.4021C44.5478 68.2233 44.5875 68.0445 44.676 67.8882C44.7644 67.7318 44.8976 67.605 45.0588 67.5236C45.2199 67.4422 45.4018 67.41 45.5814 67.431C45.761 67.452 45.9303 67.5252 46.0679 67.6415C46.1596 67.719 46.235 67.8136 46.2897 67.9201C46.3444 68.0265 46.3774 68.1426 46.3867 68.2616C46.3961 68.3807 46.3816 68.5005 46.3441 68.614C46.3066 68.7275 46.2469 68.8326 46.1683 68.9231Z" fill="white"/>
<path d="M83.2846 67.4249L69.8162 54.0757H58.9517C61.3962 57.0955 63.0849 59.0619 63.0849 59.0619L66.5804 55.6031L68.157 57.1657L67.1355 58.1723L79.8776 70.7959C80.1008 71.0175 80.3659 71.1932 80.6577 71.3131C80.9495 71.4331 81.2623 71.4948 81.5782 71.4948C81.894 71.4948 82.2068 71.4331 82.4986 71.3131C82.7904 71.1932 83.0555 71.0175 83.2787 70.7959C83.5026 70.5751 83.6804 70.3126 83.8019 70.0236C83.9234 69.7346 83.9862 69.4247 83.9867 69.1116C83.9873 68.7985 83.9256 68.4884 83.8051 68.199C83.6846 67.9096 83.5077 67.6465 83.2846 67.4249ZM81.5132 69.0285C81.4233 69.1178 81.3086 69.1787 81.1837 69.2034C81.0588 69.2281 80.9293 69.2156 80.8117 69.1673C80.694 69.1191 80.5934 69.0373 80.5226 68.9324C80.4519 68.8275 80.4141 68.7041 80.4141 68.5778C80.4141 68.4516 80.4519 68.3282 80.5226 68.2233C80.5934 68.1184 80.694 68.0366 80.8117 67.9884C80.9293 67.9401 81.0588 67.9276 81.1837 67.9523C81.3086 67.977 81.4233 68.0379 81.5132 68.1272C81.5736 68.186 81.6215 68.2562 81.6542 68.3335C81.6869 68.4109 81.7038 68.4939 81.7038 68.5778C81.7038 68.6617 81.6869 68.7448 81.6542 68.8222C81.6215 68.8995 81.5736 68.9697 81.5132 69.0285Z" fill="white"/>
<path d="M60.422 44.7413L42.3657 26.8447C42.5311 30.8419 46.499 37.6248 51.7423 44.7413H60.422Z" fill="white"/>
<path d="M64.8978 27.5239C65.567 27.4252 66.1743 27.0804 66.5987 26.5581C67.0231 26.0358 67.2336 25.3743 67.1882 24.7051C67.1428 24.036 66.8449 23.4083 66.3537 22.9471C65.8625 22.4858 65.2142 22.2247 64.5376 22.2158C64.3713 22.2144 64.2053 22.2281 64.0416 22.2567C63.9055 21.6677 63.5718 21.1419 63.095 20.7653C62.6183 20.3887 62.0267 20.1836 61.417 20.1836C60.8073 20.1836 60.2157 20.3887 59.7389 20.7653C59.2622 21.1419 58.9284 21.6677 58.7924 22.2567C58.6135 22.2213 58.4316 22.2036 58.2492 22.2041C57.5524 22.1877 56.8766 22.4404 56.3642 22.9087C55.8519 23.377 55.5433 24.0243 55.5034 24.7139C55.4636 25.4035 55.6957 26.0815 56.1507 26.6047C56.6057 27.1279 57.2481 27.4554 57.9421 27.518V32.9666H57.2454C57.2068 32.9609 57.1674 32.9635 57.1299 32.9743C57.0924 32.985 57.0576 33.0037 57.0281 33.029C56.9985 33.0542 56.9748 33.0855 56.9585 33.1207C56.9422 33.1559 56.9338 33.1942 56.9338 33.2329C56.9338 33.2716 56.9422 33.3098 56.9585 33.345C56.9748 33.3802 56.9985 33.4115 57.0281 33.4367C57.0576 33.462 57.0924 33.4806 57.1299 33.4914C57.1674 33.5022 57.2068 33.5048 57.2454 33.4991H65.5118C65.5505 33.5048 65.5899 33.5022 65.6274 33.4914C65.6649 33.4806 65.6996 33.462 65.7292 33.4367C65.7587 33.4115 65.7825 33.3802 65.7987 33.345C65.815 33.3098 65.8234 33.2716 65.8234 33.2329C65.8234 33.1942 65.815 33.1559 65.7987 33.1207C65.7825 33.0855 65.7587 33.0542 65.7292 33.029C65.6996 33.0037 65.6649 32.985 65.6274 32.9743C65.5899 32.9635 65.5505 32.9609 65.5118 32.9666H64.8682V27.5121L64.8978 27.5239ZM64.5081 27.5239V32.6739H63.9176V27.003H64.5081C64.7818 26.993 65.0508 26.9297 65.2999 26.8166C65.5489 26.7036 65.773 26.543 65.9594 26.3441C66.1458 26.1452 66.2909 25.9119 66.3863 25.6574C66.4818 25.4029 66.5257 25.1323 66.5156 24.861C66.5056 24.5897 66.4417 24.3231 66.3276 24.0762C66.2135 23.8294 66.0515 23.6073 65.8509 23.4225C65.6502 23.2377 65.4148 23.094 65.158 22.9994C64.9013 22.9048 64.6283 22.8612 64.3545 22.8712V22.4908C64.6863 22.4681 65.0193 22.5119 65.3335 22.6196C65.6478 22.7273 65.937 22.8968 66.1837 23.1177C66.4304 23.3387 66.6297 23.6067 66.7695 23.9057C66.9094 24.2048 66.987 24.5287 66.9978 24.8581C67.0085 25.1875 66.9521 25.5157 66.8319 25.823C66.7118 26.1304 66.5304 26.4105 66.2985 26.6468C66.0667 26.8831 65.7892 27.0706 65.4825 27.1982C65.1759 27.3257 64.8465 27.3907 64.514 27.3893L64.5081 27.5239Z" fill="white"/>
<path d="M49.4041 89.8538C49.3562 89.9533 49.3312 90.0622 49.3309 90.1724C49.3306 90.2827 49.3551 90.3916 49.4026 90.4914C49.4501 90.5911 49.5194 90.6791 49.6054 90.749C49.6915 90.8189 49.7921 90.869 49.9001 90.8955C50.1255 90.9949 50.3681 91.0505 50.6146 91.0594C50.6146 91.153 50.6146 91.2525 50.6146 91.352C50.3147 91.344 50.0195 91.2763 49.7466 91.153C49.5901 91.1138 49.4444 91.0404 49.3203 90.9381C49.1962 90.8358 49.0967 90.7072 49.0293 90.5618C48.9619 90.4164 48.9283 90.2579 48.9308 90.0979C48.9333 89.9379 48.972 89.7805 49.0439 89.6373C49.1729 89.3596 49.4063 89.1429 49.6942 89.0335C49.9822 88.9242 50.3019 88.9308 50.5851 89.052C50.711 89.0994 50.8259 89.1718 50.9227 89.2646C51.0195 89.3575 51.0962 89.4689 51.1482 89.5922C51.2001 89.7154 51.2262 89.8478 51.2248 89.9813C51.2234 90.1148 51.1946 90.2467 51.1401 90.3688C51.1401 90.4449 51.081 90.4976 51.0633 90.5385C50.4847 90.3337 49.9415 90.1113 49.4041 89.8538ZM50.7445 90.1172C50.784 90.0425 50.8068 89.9602 50.8112 89.876C50.8157 89.7918 50.8017 89.7077 50.7703 89.6293C50.7389 89.5509 50.6908 89.4802 50.6293 89.422C50.5678 89.3638 50.4943 89.3194 50.4138 89.292C50.2534 89.2275 50.0748 89.2235 49.9117 89.2807C49.7485 89.3378 49.6121 89.4522 49.5281 89.6022C49.9296 89.7953 50.3312 89.965 50.7445 90.123V90.1172Z" fill="#FE942A"/>
<path d="M52.0659 91.6859C52.2156 91.8407 52.4025 91.9555 52.6091 92.0194C52.9338 92.1189 53.1287 92.0194 53.1995 91.8497C53.2704 91.68 53.1523 91.5337 52.863 91.3347C52.4733 91.0713 52.3434 90.7963 52.426 90.5563C52.5083 90.3787 52.6584 90.2406 52.8433 90.1726C53.0282 90.1045 53.2328 90.112 53.4121 90.1935C53.6043 90.2474 53.7819 90.3434 53.9317 90.4744L53.7546 90.7261C53.6328 90.6068 53.4824 90.5202 53.3176 90.4744C53.0696 90.4042 52.8925 90.4744 52.8453 90.6383C52.798 90.8021 52.9043 90.9367 53.1818 91.124C53.5538 91.3815 53.7251 91.6156 53.6424 91.9316C53.5597 92.2477 53.1346 92.4759 52.5382 92.2945C52.2939 92.2266 52.0693 92.1022 51.8828 91.9316L52.0659 91.6859Z" fill="#FE942A"/>
<path d="M56.9372 90.1323L56.8191 90.7176L57.4096 90.8288L57.3565 91.1214L56.766 91.0102L56.5357 92.1807C56.4826 92.444 56.5357 92.6079 56.8014 92.6547C56.8917 92.664 56.9827 92.664 57.073 92.6547C57.073 92.7483 57.073 92.8478 57.073 92.9473C56.9322 92.9694 56.7887 92.9694 56.6479 92.9473C56.5473 92.947 56.4483 92.9212 56.3606 92.8724C56.2728 92.8235 56.1991 92.7533 56.1465 92.6682C56.0938 92.5832 56.064 92.4863 56.0598 92.3866C56.0555 92.2869 56.0771 92.1878 56.1224 92.0987C56.211 91.7125 56.2936 91.3262 56.3763 90.9282L56.0161 90.8463L56.087 90.5537L56.4412 90.6356L56.5534 90.1265L56.9372 90.1323Z" fill="#FE942A"/>
<path d="M59.5619 92.6985C59.5824 92.6256 59.6286 92.5625 59.6921 92.5205C59.7556 92.4785 59.8321 92.4604 59.9079 92.4696C59.9837 92.4788 60.0536 92.5147 60.105 92.5707C60.1563 92.6266 60.1857 92.699 60.1878 92.7746C60.1832 92.8147 60.17 92.8534 60.149 92.888C60.128 92.9225 60.0997 92.9522 60.0661 92.975C60.0325 92.9977 59.9943 93.0131 59.9542 93.0199C59.914 93.0267 59.8729 93.0249 59.8335 93.0145C59.7938 93.0141 59.7547 93.0053 59.7187 92.9886C59.6828 92.972 59.6508 92.9478 59.6251 92.9179C59.5993 92.8879 59.5804 92.8529 59.5695 92.815C59.5586 92.7772 59.556 92.7374 59.5619 92.6985Z" fill="#FE942A"/>
<path d="M62.5409 89.9097L61.9977 90.1848C61.9977 90.0795 61.9445 89.98 61.9209 89.8805C62.1453 89.7693 62.3696 89.6581 62.5881 89.541H62.9365L63.0428 92.4672H62.5881C62.5704 91.6069 62.5527 90.7583 62.5409 89.9097Z" fill="#FE942A"/>
<path d="M64.7272 92.3346C64.8529 92.3279 64.9776 92.3083 65.0992 92.2761C65.3557 92.22 65.5886 92.0872 65.7664 91.8956C65.9739 91.6667 66.0821 91.3661 66.0676 91.0588C65.9879 91.1798 65.8817 91.2815 65.7571 91.3564C65.6324 91.4314 65.4923 91.4777 65.3472 91.4918C65.2261 91.5201 65.1002 91.522 64.9782 91.4974C64.8563 91.4729 64.7412 91.4224 64.6407 91.3496C64.5403 91.2767 64.457 91.1832 64.3965 91.0754C64.336 90.9676 64.2998 90.8481 64.2903 90.7252C64.2569 90.4491 64.335 90.1711 64.5075 89.9518C64.6801 89.7325 64.9331 89.5898 65.2114 89.5547C65.8019 89.461 66.2919 89.8532 66.4455 90.5847C66.5125 90.8336 66.5197 91.0946 66.4664 91.3467C66.413 91.5988 66.3007 91.8349 66.1384 92.0361C65.8907 92.3052 65.5647 92.4914 65.2055 92.5687C65.0643 92.6061 64.9201 92.6315 64.7745 92.6447L64.7272 92.3346ZM64.7272 90.6491C64.7333 90.7312 64.7568 90.811 64.7961 90.8835C64.8354 90.956 64.8898 91.0194 64.9555 91.0697C65.0213 91.1199 65.097 91.1559 65.1777 91.1752C65.2584 91.1945 65.3423 91.1967 65.424 91.1816C65.5492 91.1707 65.6695 91.1278 65.773 91.057C65.8765 90.9863 65.9597 90.8901 66.0144 90.7778C66.0298 90.7303 66.0298 90.6791 66.0144 90.6315C65.9259 90.1399 65.6661 89.8063 65.235 89.8707C65.1467 89.8838 65.0621 89.9149 64.9864 89.9619C64.9107 90.0089 64.8457 90.0708 64.7952 90.1439C64.7448 90.2169 64.7101 90.2995 64.6933 90.3864C64.6766 90.4733 64.678 90.5627 64.6977 90.6491H64.7272Z" fill="#FE942A"/>
<path d="M68.0306 91.4453C67.9994 91.2651 68.0266 91.0796 68.1083 90.9156C68.19 90.7516 68.3219 90.6175 68.4853 90.5323C68.3358 90.5262 68.1922 90.473 68.0754 90.3803C67.9586 90.2877 67.8746 90.1605 67.8358 90.0173C67.8181 89.9047 67.8231 89.7898 67.8504 89.6791C67.8777 89.5684 67.9267 89.4641 67.9948 89.3722C68.0628 89.2803 68.1484 89.2026 68.2468 89.1436C68.3451 89.0846 68.4543 89.0454 68.5679 89.0283C68.6658 88.9839 68.7716 88.9594 68.8792 88.9564C68.9867 88.9533 69.0938 88.9717 69.194 89.0105C69.2943 89.0493 69.3856 89.1076 69.4627 89.182C69.5397 89.2565 69.6009 89.3455 69.6426 89.4438C69.6869 89.5929 69.6823 89.7521 69.6292 89.8984C69.5761 90.0447 69.4774 90.1704 69.3473 90.2573C69.5285 90.2407 69.7103 90.2809 69.8671 90.3723C70.0239 90.4636 70.1478 90.6015 70.2212 90.7665C70.3925 91.2464 70.0028 91.7438 69.3533 91.9369C68.7037 92.1301 68.1192 91.8316 68.0306 91.4453ZM69.802 90.9479C69.6957 90.6143 69.371 90.5382 68.9163 90.5499C68.5679 90.7489 68.4203 91.0122 68.4912 91.2814C68.562 91.5506 68.8691 91.7672 69.2942 91.6443C69.7193 91.5214 69.8788 91.2112 69.7843 90.9244L69.802 90.9479ZM68.2255 89.8827C68.2963 90.1637 68.5679 90.2631 68.9576 90.2456C69.0754 90.1873 69.1701 90.0918 69.2268 89.9741C69.2835 89.8564 69.2989 89.7233 69.2706 89.596C69.2517 89.532 69.2194 89.4726 69.1758 89.4218C69.1322 89.371 69.0782 89.3298 69.0175 89.3011C68.9567 89.2724 68.8905 89.2567 68.8232 89.2551C68.756 89.2534 68.6891 89.2659 68.627 89.2916C68.5612 89.3001 68.4978 89.3217 68.4406 89.3552C68.3835 89.3887 68.3338 89.4333 68.2946 89.4864C68.2554 89.5395 68.2275 89.5999 68.2126 89.664C68.1976 89.7281 68.196 89.7946 68.2078 89.8593L68.2255 89.8827Z" fill="#FE942A"/>
<path d="M71.6458 91.0148L71.5572 90.7865C71.6399 90.6519 71.7167 90.5173 71.7934 90.3769C72.3544 89.3995 72.5197 88.8962 72.3426 88.4924C72.3131 88.4172 72.2673 88.3492 72.2084 88.2935C72.1495 88.2377 72.079 88.1955 72.0018 88.1699C71.9246 88.1442 71.8426 88.1356 71.7617 88.1448C71.6808 88.154 71.6029 88.1808 71.5336 88.2232C71.3127 88.3255 71.1291 88.4932 71.0081 88.7031L70.7778 88.4865C70.9458 88.2245 71.1911 88.0202 71.4805 87.9013C71.5855 87.8419 71.7016 87.8043 71.8218 87.791C71.942 87.7778 72.0636 87.789 72.1792 87.8241C72.2948 87.8592 72.402 87.9174 72.494 87.9951C72.5861 88.0728 72.6612 88.1683 72.7145 88.2759C72.9507 88.7558 72.7559 89.3469 72.313 90.172L72.1418 90.4764C72.6319 90.2832 73.1102 90.0725 73.5825 89.8443L73.7242 90.1369C73.0452 90.4588 72.3485 90.7573 71.6458 91.0148Z" fill="#FE942A"/>
<path d="M48.4172 51.478C47.8106 51.478 47.3406 51.2847 47.0072 50.898C46.7206 50.5647 46.5772 50.1347 46.5772 49.608V45.688L47.8372 45.028V49.548C47.8372 49.808 47.8906 49.9947 47.9972 50.108C48.1039 50.2147 48.2839 50.268 48.5372 50.268H49.4372V51.478H48.4172ZM50.7943 46.028C50.5943 46.028 50.4343 45.968 50.3143 45.848C50.1943 45.728 50.1343 45.5647 50.1343 45.358C50.1343 45.1647 50.1943 45.008 50.3143 44.888C50.4343 44.768 50.5943 44.708 50.7943 44.708C50.9943 44.708 51.1509 44.768 51.2643 44.888C51.3843 45.0014 51.4443 45.158 51.4443 45.358C51.4443 45.8047 51.2276 46.028 50.7943 46.028ZM52.3943 50.268H53.2943V51.478H52.2743C51.7876 51.478 51.3843 51.348 51.0643 51.088C50.7443 51.348 50.3409 51.478 49.8543 51.478H48.8343V50.268H49.7343C49.9876 50.268 50.1676 50.2147 50.2743 50.108C50.3809 49.9947 50.4343 49.808 50.4343 49.548V47.698L51.6943 47.038V49.548C51.6943 49.808 51.7476 49.9947 51.8543 50.108C51.9609 50.2147 52.1409 50.268 52.3943 50.268ZM59.0517 50.268H59.9417V51.478H58.9217C58.4417 51.478 58.0484 51.3547 57.7417 51.108C57.3817 51.488 56.9084 51.678 56.3217 51.678C55.7217 51.678 55.2484 51.488 54.9017 51.108C54.5817 51.3547 54.185 51.478 53.7117 51.478H52.6917V50.268H53.5917C53.845 50.268 54.025 50.2147 54.1317 50.108C54.2384 49.9947 54.2917 49.808 54.2917 49.548V49.258C54.2917 48.478 54.495 47.8714 54.9017 47.438C55.255 47.058 55.7284 46.868 56.3217 46.868C56.995 46.868 57.515 47.1147 57.8817 47.608C58.1884 48.028 58.3417 48.578 58.3417 49.258V49.548C58.3417 49.808 58.395 49.9947 58.5017 50.108C58.615 50.2147 58.7984 50.268 59.0517 50.268ZM56.3217 50.468C56.8284 50.468 57.0817 50.0547 57.0817 49.228C57.0817 48.4347 56.8284 48.038 56.3217 48.038C55.8084 48.038 55.5517 48.4347 55.5517 49.228C55.5517 50.0547 55.8084 50.468 56.3217 50.468ZM64.2521 50.268H67.0021L67.0221 51.478H64.1321C63.7921 51.478 63.4721 51.3947 63.1721 51.228C62.8588 51.3947 62.5388 51.478 62.2121 51.478H59.3421V50.268H62.0621C61.7621 50.0614 61.5121 49.8647 61.3121 49.678C61.1988 49.578 61.0254 49.3914 60.7921 49.118C60.7188 49.0314 60.6588 48.9614 60.6121 48.908V48.338C60.9054 47.8914 61.2821 47.5347 61.7421 47.268C62.2088 47.0014 62.6854 46.868 63.1721 46.868C63.6521 46.868 64.1254 47.0047 64.5921 47.278C65.0588 47.5447 65.4454 47.9047 65.7521 48.358V48.908C65.3054 49.448 64.8054 49.9014 64.2521 50.268ZM63.1621 49.788C63.6621 49.3947 64.0321 48.998 64.2721 48.598C63.8721 48.2247 63.4954 48.038 63.1421 48.038C62.8021 48.038 62.4488 48.2247 62.0821 48.598C62.3421 49.058 62.7021 49.4547 63.1621 49.788ZM75.1322 50.268H76.0322V51.478H75.0122C74.5322 51.478 74.1388 51.3547 73.8322 51.108C73.5255 51.3547 73.1422 51.478 72.6822 51.478H66.4222V50.268H68.2122L68.3322 49.928V45.698L69.5922 45.028V47.908C70.2722 47.2147 71.0522 46.868 71.9322 46.868C72.7255 46.868 73.3555 47.1414 73.8222 47.688C74.2222 48.148 74.4222 48.718 74.4222 49.398V49.608C74.4222 50.048 74.6588 50.268 75.1322 50.268ZM72.6322 50.268C72.8522 50.268 72.9955 50.2247 73.0622 50.138C73.1355 50.0514 73.1722 49.868 73.1722 49.588V49.398C73.1722 48.998 73.0555 48.6714 72.8222 48.418C72.5955 48.1647 72.3022 48.038 71.9422 48.038C71.4822 48.038 71.0422 48.208 70.6222 48.548C70.2088 48.888 69.8655 49.358 69.5922 49.958V50.268H72.6322ZM77.0358 48.718C77.0358 48.118 77.2225 47.648 77.5958 47.308C77.9225 47.0147 78.3425 46.868 78.8558 46.868C79.5158 46.868 80.0292 47.1114 80.3958 47.598C80.7092 48.0047 80.8658 48.528 80.8658 49.168C80.8658 49.908 80.6692 50.4914 80.2758 50.918C79.9225 51.2914 79.4725 51.478 78.9258 51.478C78.3925 51.478 77.9558 51.3614 77.6158 51.128C77.2958 51.3614 76.9092 51.478 76.4558 51.478H75.4358V50.268H76.3358C76.5892 50.268 76.7692 50.2147 76.8758 50.108C76.9825 49.9947 77.0358 49.808 77.0358 49.548V48.718ZM78.2958 49.708C78.2958 50.0814 78.4925 50.268 78.8858 50.268C79.3792 50.268 79.6258 49.888 79.6258 49.128C79.6258 48.4014 79.3692 48.038 78.8558 48.038C78.4825 48.038 78.2958 48.258 78.2958 48.698V49.708Z" fill="white"/>
</g>
<defs>
<clipPath id="clip0_3281_1799">
<rect width="123.253" height="93" fill="white"/>
</clipPath>
</defs>
</svg>
