<svg width="96" height="73" viewBox="0 0 96 73" fill="none" xmlns="http://www.w3.org/2000/svg">
<g clip-path="url(#clip0_1_2581)">
<path d="M47.7885 0L48.6807 1.80996L50.6859 2.10396L49.2372 3.51425L49.5775 5.50337L47.7885 4.56164L45.9949 5.50337L46.3398 3.51425L44.8911 2.10396L46.8917 1.80996L47.7885 0Z" fill="#F49618"/>
<path d="M42.9915 1.90186L43.5802 3.08705L44.8909 3.2754L43.9435 4.19875L44.1642 5.50339L42.9915 4.88782L41.8233 5.50339L42.0441 4.19875L41.0967 3.2754L42.4074 3.08705L42.9915 1.90186Z" fill="#F49618"/>
<path d="M53.0083 1.90186L53.5924 3.08705L54.9031 3.2754L53.9557 4.19875L54.1764 5.50339L53.0083 4.88782L51.8355 5.50339L52.0563 4.19875L51.1089 3.2754L52.4196 3.08705L53.0083 1.90186Z" fill="#F49618"/>
<path d="M48.0136 65.4983V64.9378C48.3493 64.9378 48.6851 64.9378 49.0162 64.9378V65.4937C48.6943 65.4891 48.3539 65.4937 48.0136 65.4983ZM46.9926 65.4983C46.6523 65.4983 46.312 65.4707 45.9762 65.4431L46.0176 64.8873C46.3487 64.9118 46.6799 64.9302 47.011 64.9424L46.9926 65.4983ZM50.051 65.4431L50.005 64.8827C50.3361 64.8827 50.6718 64.8276 50.9984 64.7908L51.0627 65.3467C50.727 65.3604 50.3867 65.3926 50.051 65.4202V65.4431ZM44.9598 65.3467C44.6195 65.3099 44.2838 65.264 43.9481 65.2135L44.0354 64.6622C44.362 64.7081 44.6931 64.7541 45.0242 64.7908L44.9598 65.3467ZM52.0745 65.2089L51.9872 64.6576C52.3183 64.6071 52.6448 64.5519 52.9713 64.4876L53.0771 65.0343C52.746 65.0756 52.4103 65.1262 52.0745 65.1859V65.2089ZM42.9455 65.0389C42.6097 64.9746 42.2786 64.9057 41.9475 64.8276L42.0763 64.2855C42.3982 64.359 42.7247 64.4279 43.0512 64.4922L42.9455 65.0389ZM54.0751 64.823L53.9463 64.2809C54.2729 64.2028 54.5948 64.1201 54.9167 64.0328L55.0639 64.5749C54.7512 64.6392 54.4062 64.7219 54.0751 64.8V64.823ZM40.9541 64.5565L39.9745 64.2671L40.1447 63.7342C40.462 63.8353 40.7793 63.9272 41.1013 64.0145L40.9541 64.5565ZM56.0343 64.2625L55.8687 63.7297C56.1861 63.6286 56.4988 63.5229 56.8115 63.4081L57.0001 63.9364C56.6874 64.0512 56.3654 64.1569 56.0389 64.2625H56.0343ZM39.0179 63.941C38.696 63.8261 38.3786 63.7067 38.0613 63.5781L38.2729 63.059C38.581 63.183 38.8937 63.3024 39.1927 63.4173L39.0179 63.941ZM57.9659 63.5735L57.7543 63.0544C58.0625 62.9303 58.366 62.7971 58.6741 62.6639L58.9041 63.1738C58.5868 63.3116 58.274 63.4448 57.9705 63.5735H57.9659ZM37.1231 63.1784C36.8104 63.0406 36.5022 62.8936 36.2033 62.719L36.4517 62.2183C36.7506 62.3653 37.0495 62.5077 37.3715 62.6455L37.1231 63.1784ZM59.8193 62.719L59.5709 62.2183L60.4539 61.7589L60.7207 62.2458C60.4172 62.4342 60.1182 62.5904 59.8101 62.742L59.8193 62.719ZM35.2927 62.2596C34.9938 62.0943 34.6948 61.9289 34.4051 61.7543L34.6902 61.272C34.9754 61.4404 35.2651 61.6058 35.5594 61.7681L35.2927 62.2596ZM61.6037 61.7543L61.3186 61.272C61.6037 61.102 61.8888 60.9274 62.1648 60.7483L62.4683 61.2076C62.1786 61.4144 61.8934 61.5935 61.5991 61.7681L61.6037 61.7543ZM33.5497 61.2168C33.2645 61.0331 32.984 60.8402 32.708 60.6426L33.03 60.1832C33.3013 60.3762 33.5773 60.5599 33.8578 60.7437L33.5497 61.2168ZM63.3283 60.6472L63.0018 60.1878C63.2778 59.9949 63.5445 59.7974 63.8066 59.5952L64.147 60.0546C63.8618 60.2659 63.5859 60.4635 63.3099 60.661L63.3283 60.6472ZM31.8664 60.073C31.5966 59.8647 31.3299 59.6534 31.0662 59.439L31.4249 59.0072C31.6779 59.2231 31.94 59.4299 32.2068 59.632L31.8664 60.073ZM64.9288 59.4436L64.5701 59.0118C64.8276 58.8005 65.0806 58.5846 65.3289 58.3641L65.7014 58.7821C65.4531 58.9965 65.1955 59.2109 64.9288 59.4253V59.4436ZM30.2936 58.7775C30.0406 58.5524 29.7877 58.3182 29.5439 58.0839L29.9348 57.6842C30.174 57.9139 30.4177 58.139 30.6661 58.3595L30.2936 58.7775ZM66.4511 58.0931L66.0602 57.6888C66.2993 57.4591 66.5201 57.2294 66.7684 56.986L67.1685 57.3718C66.934 57.5969 66.7086 57.8358 66.4511 58.0747V58.0931ZM28.8265 57.3672C28.5873 57.1192 28.3666 56.8711 28.132 56.6185L28.5505 56.2464C28.7713 56.4944 28.9966 56.7379 29.2266 56.9768L28.8265 57.3672ZM67.863 56.623L67.4445 56.2509C67.6652 56.0029 67.9044 55.7502 68.0975 55.4976L68.5298 55.8513C68.3091 56.0948 68.0883 56.352 67.863 56.6047V56.623ZM27.4698 55.8467C27.2613 55.5741 27.0497 55.2985 26.8351 55.0198L27.295 54.6845C27.4928 54.9463 27.6997 55.2081 27.9113 55.4654L27.4698 55.8467ZM69.1599 55.0198L68.7 54.6845C68.9024 54.418 69.1001 54.1516 69.2887 53.876L69.7486 54.2021C69.5692 54.4915 69.3669 54.7672 69.1599 55.0198ZM26.2372 54.2113C26.0395 53.9357 25.8509 53.6554 25.6669 53.3706L26.1268 53.0629C26.3062 53.3431 26.4948 53.6187 26.6833 53.8897L26.2372 54.2113ZM70.3418 53.3706L69.8819 53.0675C70.0613 52.7872 70.2407 52.507 70.4108 52.2176L70.8707 52.507C70.7006 52.7964 70.5212 53.0858 70.3372 53.3706H70.3418ZM25.1289 52.507C24.9541 52.213 24.7839 51.919 24.623 51.6204L25.1151 51.354C25.276 51.648 25.437 51.9374 25.6072 52.2176L25.1289 52.507ZM71.3858 51.6204L70.8937 51.3448C71.0501 51.0508 71.2065 50.7568 71.3536 50.4582L71.8549 50.7062C71.7032 51.0186 71.5468 51.3448 71.3812 51.6204H71.3858ZM24.1539 50.7016C24.0021 50.3984 23.8595 50.0953 23.717 49.7829L24.2274 49.5532C24.3654 49.8564 24.508 50.1596 24.6552 50.472L24.1539 50.7016ZM72.2964 49.7829L71.7859 49.5532C71.9193 49.25 72.0527 48.9422 72.1769 48.6344L72.6966 48.8458C72.5632 49.1673 72.4298 49.5073 72.2918 49.7921L72.2964 49.7829ZM23.3214 48.8641C23.1927 48.5517 23.0731 48.2348 22.9581 47.9132L23.4824 47.7249C23.5974 48.0372 23.7124 48.3496 23.8365 48.6436L23.3214 48.8641ZM73.0553 47.8994L72.531 47.7111C72.6414 47.3987 72.7471 47.0818 72.8483 46.7648L73.3818 46.9302C73.2806 47.2563 73.1702 47.5779 73.0553 47.8994ZM22.6224 46.9531C22.5212 46.6315 22.4246 46.3054 22.3373 45.9746L22.8753 45.8276C22.9627 46.1492 23.0593 46.4708 23.1559 46.7831L22.6224 46.9531ZM73.6715 45.9563L73.1473 45.8322C73.2346 45.5107 73.3128 45.1891 73.391 44.8629L73.9337 44.9916C73.8463 45.2993 73.7589 45.6301 73.6715 45.9563ZM22.0981 44.9916C22.0199 44.6608 21.9509 44.3301 21.8865 43.9947L22.4338 43.8891C22.4982 44.2152 22.5672 44.5414 22.6408 44.8629L22.0981 44.9916ZM74.1314 43.9947L73.5842 43.8891C73.6485 43.5629 73.7037 43.2367 73.7543 42.906L74.3062 42.9887C74.2556 43.3056 74.1958 43.641 74.1314 43.9947ZM21.7026 43.0162C21.6474 42.6809 21.606 42.3455 21.5646 42.0056L22.1211 41.9413C22.1579 42.2721 22.2039 42.6028 22.2545 42.9289L21.7026 43.0162ZM74.4488 41.9826L73.8923 41.9183C73.9291 41.5876 73.9613 41.2568 73.9843 40.9261L74.5408 40.9674C74.527 41.2844 74.481 41.6197 74.4442 41.9597L74.4488 41.9826ZM21.468 40.9904C21.4404 40.655 21.422 40.3151 21.4083 39.9751L21.9693 39.9522C21.9693 40.2875 22.0015 40.6183 22.0245 40.949L21.468 40.9904ZM74.6005 39.9522H74.0395C74.0395 39.6214 74.0395 39.2907 74.0395 38.9553L74.5959 38.9094V38.9553C74.6143 39.2539 74.6097 39.5939 74.5959 39.9292L74.6005 39.9522ZM21.3853 38.9415V38.9186C21.3853 38.5878 21.3853 38.257 21.3853 37.9263H21.9417C21.9417 38.2525 21.9417 38.574 21.9417 38.9002L21.3853 38.9415ZM74.0349 37.8804C74.0349 37.545 74.0027 37.2143 73.9751 36.8835L74.5362 36.8376C74.5362 37.1775 74.5821 37.5175 74.5959 37.8574L74.0349 37.8804ZM22.0199 36.9616L21.4588 36.9203C21.4864 36.5803 21.5186 36.2404 21.5554 35.905L22.1119 35.9694C22.0981 36.2771 22.0429 36.6079 22.0199 36.9432V36.9616ZM73.8831 35.9004C73.8417 35.5697 73.7957 35.2389 73.7451 34.9128L74.3016 34.8255C74.3522 35.1608 74.3982 35.4962 74.435 35.8361L73.8831 35.9004ZM22.2407 34.9817L21.6888 34.899C21.7394 34.5637 21.7992 34.2283 21.8636 33.8976L22.4108 34.0032C22.3511 34.3018 22.2913 34.6326 22.2407 34.9587V34.9817ZM73.575 33.9343C73.5106 33.6081 73.4416 33.282 73.368 32.9604L73.9107 32.8318C73.9889 33.1625 74.0579 33.4933 74.1269 33.8286L73.575 33.9343ZM22.6178 33.0155L22.0981 32.8777C22.1717 32.547 22.2545 32.2162 22.3465 31.8901L22.8845 32.037C22.7742 32.3586 22.696 32.6802 22.6178 33.0018V33.0155ZM73.1197 31.9865C73.0323 31.665 72.9357 31.348 72.8345 31.031L73.368 30.861C73.4692 31.1826 73.5704 31.5088 73.6577 31.8395L73.1197 31.9865ZM23.1421 31.0816L22.6086 30.9116C22.7144 30.5854 22.8202 30.2638 22.9351 29.9469L23.464 30.1352C23.349 30.4476 23.2433 30.7646 23.1421 31.0816ZM72.5126 30.0709C72.4022 29.7585 72.2826 29.4462 72.1585 29.1522L72.6782 28.9408C72.8023 29.2532 72.9265 29.5702 73.0415 29.8918L72.5126 30.0709ZM23.8181 29.1981L23.2984 28.9914C23.4272 28.6744 23.5606 28.362 23.6986 28.0497L24.2091 28.2793C24.0757 28.5825 23.9377 28.8903 23.8181 29.1981ZM71.7675 28.2288C71.6296 27.9256 71.487 27.627 71.3398 27.31L71.8411 27.062C71.9929 27.3652 72.1355 27.6684 72.301 27.9807L71.7675 28.2288ZM24.6368 27.3789L24.1355 27.1263C24.2872 26.8231 24.4436 26.5199 24.5954 26.2075L25.0875 26.474C24.9403 26.7818 24.7839 27.0758 24.6368 27.3789ZM70.8799 26.4602C70.719 26.1708 70.5534 25.8814 70.3832 25.5966L70.8431 25.3072C71.0179 25.6012 71.1835 25.8952 71.349 26.1938L70.8799 26.4602ZM25.5934 25.6195L25.1335 25.3347C25.3082 25.0453 25.4876 24.7559 25.6715 24.4711L26.1314 24.7743C25.9383 25.0545 25.7773 25.3347 25.5934 25.6195ZM69.859 24.7375C69.675 24.4573 69.491 24.1863 69.2979 23.9152L69.7578 23.5891C69.9555 23.8693 70.1441 24.1495 70.3327 24.4343L69.859 24.7375ZM26.6971 23.9474L26.2372 23.6258C26.435 23.3502 26.6373 23.0746 26.8443 22.8035L27.3042 23.1435C27.065 23.4053 26.8719 23.6763 26.6971 23.9474ZM68.723 23.1113C68.5252 22.8495 68.3183 22.5876 68.1067 22.3304L68.5344 21.9767C68.7506 22.2385 68.9621 22.5003 69.1691 22.7714L68.723 23.1113ZM27.9067 22.3625L27.4744 22.0042C27.6905 21.7424 27.9343 21.4851 28.1412 21.2325L28.5597 21.6046C28.316 21.8526 28.0998 22.1053 27.8883 22.3625H27.9067ZM67.4583 21.577C67.2375 21.3289 66.9984 21.0854 66.7776 20.8466L67.1823 20.4561C67.4169 20.7042 67.6422 20.9522 67.8768 21.2049L67.4583 21.577ZM29.2404 20.8741L28.8357 20.4837C29.0748 20.2402 29.2956 20.0013 29.5577 19.767L29.944 20.1667C29.6819 20.3964 29.4565 20.6353 29.2174 20.8741H29.2404ZM66.074 20.1437C65.8348 19.9094 65.6141 19.6844 65.3427 19.4638L65.7106 19.0458C65.9682 19.2709 66.2165 19.5052 66.4603 19.7395L66.074 20.1437ZM30.6615 19.4914L30.289 19.0734C30.5419 18.8483 30.7995 18.614 31.0662 18.4073L31.4203 18.8391C31.1536 19.0504 30.9006 19.2663 30.6523 19.4914H30.6615ZM64.5701 18.8161C64.3125 18.6048 64.0504 18.3981 63.7836 18.196L64.124 17.7366C64.3938 17.9418 64.6605 18.1531 64.9242 18.3705L64.5701 18.8161ZM32.216 18.2189L31.8756 17.7596C32.1424 17.5528 32.4183 17.3507 32.6943 17.1578L33.0162 17.6171C32.7218 17.8101 32.4551 18.0214 32.216 18.2189ZM62.9926 17.608C62.7213 17.415 62.4453 17.2313 62.1648 17.0475L62.4683 16.5881C62.7581 16.7719 63.0386 16.9648 63.3145 17.1578L62.9926 17.608ZM33.844 17.0705L33.5405 16.6111C33.821 16.4274 34.1108 16.2482 34.4005 16.0736L34.6902 16.556C34.3821 16.7168 34.097 16.8913 33.821 17.0705H33.844ZM61.3186 16.5238L60.4494 16.0277L60.7161 15.5361C61.015 15.7015 61.3094 15.8669 61.6037 16.0415L61.3186 16.5238ZM35.564 16.0644L35.2973 15.5775C35.5916 15.4121 35.8952 15.2559 36.2171 15.1181L36.4654 15.6188C36.1159 15.7383 35.8216 15.8945 35.5318 16.0507L35.564 16.0644ZM59.5709 15.5821C59.272 15.4351 58.9685 15.2927 58.6511 15.1595L58.8811 14.6449C59.1892 14.7874 59.4974 14.9298 59.8009 15.0814L59.5709 15.5821ZM37.3485 15.1824L37.1185 14.6725C37.4266 14.5301 37.7348 14.4015 38.0383 14.2729L38.2499 14.792C37.9233 14.9022 37.6152 15.0538 37.3163 15.1686L37.3485 15.1824ZM57.7451 14.769C57.437 14.645 57.1243 14.5255 56.8253 14.4107L57.0093 13.887C57.3312 14.0018 57.6531 14.1213 57.9659 14.2499L57.7451 14.769ZM39.1927 14.4336L39.0041 13.91C39.3107 13.7966 39.6326 13.6864 39.9699 13.5792L40.1401 14.1121C39.7905 14.1994 39.4732 14.3096 39.1605 14.4199L39.1927 14.4336ZM55.8595 14.0937C55.5422 13.9926 55.2249 13.9008 54.9029 13.8135L55.0501 13.2714L56.0297 13.5608L55.8595 14.0937ZM41.0967 13.8319L40.9495 13.2898C41.276 13.2025 41.6026 13.1198 41.9337 13.0417L42.0625 13.5838C41.716 13.645 41.3833 13.7231 41.0645 13.8181L41.0967 13.8319ZM53.9371 13.57C53.6106 13.4965 53.2887 13.4276 52.9575 13.3633L53.0633 12.812C53.3991 12.8763 53.7302 12.9498 54.0613 13.0233L53.9371 13.57ZM43.0375 13.3771L42.9317 12.8258C43.2628 12.7615 43.5985 12.7064 43.9343 12.6512L44.0216 13.2071C43.6583 13.2439 43.3318 13.299 43.0053 13.3633L43.0375 13.3771ZM51.9734 13.1933C51.6468 13.1428 51.3203 13.1014 50.9846 13.0647L51.049 12.5088C51.3893 12.5456 51.725 12.5915 52.0607 12.6421L51.9734 13.1933ZM45.0104 13.0739L44.946 12.518C45.2818 12.4767 45.6221 12.4445 45.9624 12.417L46.0038 12.9774C45.6512 12.9927 45.3094 13.0203 44.9782 13.0601L45.0104 13.0739ZM49.9912 12.9728C49.66 12.9453 49.3289 12.9269 48.9978 12.9177V12.3572C49.3381 12.3572 49.6784 12.3894 50.0142 12.4124L49.9912 12.9728ZM47.0018 12.9177L46.9788 12.3618C47.3145 12.3618 47.6549 12.3389 47.9952 12.3389V12.8993C47.6319 12.8855 47.3007 12.8901 46.9696 12.9039L47.0018 12.9177Z" fill="#F49618"/>
<path d="M96 30.7552H78.5237C76.5649 24.1916 72.5371 18.435 67.0395 14.3419C61.5419 10.2487 54.8683 8.0376 48.0115 8.0376C41.1546 8.0376 34.481 10.2487 28.9834 14.3419C23.4858 18.435 19.458 24.1916 17.4992 30.7552H0.0229492L8.18621 38.9414L0.0229492 47.0678H17.0393C18.1446 51.7507 20.2934 56.1241 23.3256 59.8624C26.3579 63.6006 30.1954 66.6074 34.5524 68.6586L34.833 68.0523C29.7688 65.6898 25.4334 62.0112 22.2806 57.4013C19.1278 52.7914 17.2734 47.4197 16.9116 41.8485C16.5498 36.2773 17.6938 30.7114 20.2239 25.7333C22.754 20.7551 26.5772 16.5478 31.2934 13.5516C36.0096 10.5555 41.4453 8.88055 47.0317 8.70225C52.6181 8.52394 58.1498 9.84877 63.0478 12.5381C67.9459 15.2274 72.0302 19.1824 74.8733 23.989C77.7165 28.7956 79.2139 34.2772 79.2089 39.8601C79.2065 42.0596 78.969 44.2526 78.5007 46.4017V46.4936C77.3721 51.6349 74.9612 56.4081 71.4918 60.3698C68.0225 64.3316 63.6072 67.3534 58.6559 69.1548L58.8812 69.7795C63.8687 67.967 68.3254 64.9418 71.8488 60.9773C75.3722 57.0128 77.8512 52.2339 79.0618 47.0724H95.9586L87.8137 38.9414L96 30.7552ZM1.6602 46.3971L9.13361 38.9414L1.61421 31.4259H17.3291C17.1497 32.0691 16.9887 32.7168 16.8692 33.3737C15.4527 33.2267 7.52396 33.4334 7.52396 33.4334L12.5829 38.4866L6.55816 44.4999H16.5334C16.6254 45.1384 16.7404 45.7724 16.8738 46.3971H1.6602ZM94.3443 46.3971H79.1675C79.3009 45.7724 79.4159 45.1384 79.5125 44.4999H89.5153L83.5182 38.482L88.5771 33.4288C88.5771 33.4288 80.5288 33.2175 79.2043 33.3737C79.0664 32.7122 78.9008 32.0645 78.7444 31.4213H94.3811L86.8663 38.9414L94.3443 46.3971Z" fill="#F49618"/>
<path d="M52.1758 32.2302L49.7153 35.1197H52.6265L53.8682 33.6589C58.4673 33.0433 59.9022 30.2916 59.9022 30.2916L63.2732 23.1437L56.9358 30.2135C56.8624 30.296 56.7593 30.3462 56.649 30.3531C56.5388 30.36 56.4302 30.323 56.3471 30.2503C56.2628 30.1811 56.2092 30.0815 56.198 29.9732C56.1868 29.8648 56.2189 29.7563 56.2873 29.6715L62.1097 22.303C62.1097 22.303 57.4279 27.2873 55.7125 29.1937C55.6385 29.2666 55.5397 29.3091 55.4359 29.3126C55.332 29.3162 55.2306 29.2806 55.1518 29.2129C55.073 29.1452 55.0226 29.0503 55.0106 28.9472C54.9986 28.8441 55.0258 28.7402 55.087 28.6562L61.1255 21.3062L54.5719 25.7346C54.5719 25.7346 52.07 27.5721 52.1712 32.2118L52.1758 32.2302Z" fill="#F49618"/>
<path d="M46.3858 42.4468H42.656C42.1319 42.5366 41.6563 42.8082 41.3131 43.2139L33.7063 52.1489C33.5086 52.3751 33.3581 52.6384 33.2635 52.9234C33.1688 53.2084 33.132 53.5094 33.1551 53.8087C33.1783 54.1081 33.2609 54.3999 33.3981 54.667C33.5354 54.9341 33.7246 55.1712 33.9546 55.3645C34.1826 55.5603 34.4472 55.7088 34.7331 55.8015C35.019 55.8942 35.3205 55.9291 35.6201 55.9043C35.9197 55.8796 36.2113 55.7955 36.4781 55.6571C36.7449 55.5187 36.9814 55.3286 37.1739 55.0981L44.7807 46.1677C45.0441 45.8605 45.2205 45.4886 45.2917 45.0904C45.3628 44.6922 45.3262 44.2823 45.1854 43.903L46.3858 42.4468ZM35.9598 54.1012C35.868 54.2079 35.7466 54.2851 35.6109 54.3229C35.4752 54.3607 35.3314 54.3576 35.1975 54.3138C35.0636 54.2701 34.9457 54.1877 34.8587 54.077C34.7717 53.9664 34.7194 53.8325 34.7085 53.6922C34.6976 53.5519 34.7285 53.4116 34.7974 53.2889C34.8663 53.1661 34.9701 53.0665 35.0956 53.0027C35.2211 52.9388 35.3628 52.9135 35.5026 52.93C35.6425 52.9464 35.7744 53.0039 35.8816 53.0952C35.9531 53.156 36.0118 53.2303 36.0544 53.3139C36.097 53.3974 36.1227 53.4885 36.1299 53.582C36.1372 53.6755 36.1259 53.7695 36.0967 53.8586C36.0675 53.9477 36.021 54.0301 35.9598 54.1012Z" fill="#F49618"/>
<path d="M64.8691 52.9252L54.3787 42.4468H45.9165C47.8205 44.8172 49.1358 46.3607 49.1358 46.3607L51.8584 43.6458L53.0864 44.8723L52.2907 45.6624L62.2154 55.5713C62.3893 55.7452 62.5958 55.8831 62.823 55.9772C63.0503 56.0714 63.2939 56.1198 63.54 56.1198C63.786 56.1198 64.0296 56.0714 64.2569 55.9772C64.4842 55.8831 64.6906 55.7452 64.8645 55.5713C65.0389 55.3979 65.1774 55.1919 65.272 54.9651C65.3666 54.7382 65.4155 54.4949 65.416 54.2492C65.4164 54.0034 65.3683 53.76 65.2745 53.5328C65.1806 53.3056 65.0429 53.0992 64.8691 52.9252ZM63.4894 54.1839C63.4193 54.254 63.33 54.3018 63.2327 54.3212C63.1354 54.3406 63.0346 54.3308 62.9429 54.2929C62.8513 54.255 62.7729 54.1909 62.7178 54.1085C62.6627 54.0261 62.6333 53.9293 62.6333 53.8302C62.6333 53.7311 62.6627 53.6343 62.7178 53.5519C62.7729 53.4695 62.8513 53.4054 62.9429 53.3675C63.0346 53.3296 63.1354 53.3198 63.2327 53.3392C63.33 53.3586 63.4193 53.4064 63.4894 53.4765C63.5364 53.5227 63.5737 53.5777 63.5992 53.6384C63.6247 53.6992 63.6378 53.7643 63.6378 53.8302C63.6378 53.896 63.6247 53.9612 63.5992 54.022C63.5737 54.0827 63.5364 54.1377 63.4894 54.1839Z" fill="#F49618"/>
<path d="M47.0619 35.1196L32.998 21.0718C33.1268 24.2093 36.2174 29.5335 40.3013 35.1196H47.0619Z" fill="#F49618"/>
<path d="M50.5476 21.6045C51.0689 21.5271 51.5419 21.2564 51.8724 20.8464C52.203 20.4364 52.3669 19.9172 52.3316 19.3919C52.2962 18.8667 52.0642 18.374 51.6816 18.0119C51.299 17.6499 50.794 17.4449 50.2671 17.4379C50.1376 17.4368 50.0083 17.4476 49.8807 17.4701C49.7748 17.0077 49.5148 16.595 49.1435 16.2994C48.7721 16.0038 48.3113 15.8428 47.8365 15.8428C47.3616 15.8428 46.9008 16.0038 46.5295 16.2994C46.1581 16.595 45.8982 17.0077 45.7922 17.4701C45.6529 17.4422 45.5112 17.4284 45.3691 17.4287C44.8264 17.4159 44.3 17.6142 43.901 17.9818C43.5019 18.3494 43.2615 18.8575 43.2305 19.3988C43.1994 19.9401 43.3802 20.4723 43.7346 20.883C44.089 21.2937 44.5894 21.5507 45.1299 21.5999V25.8767H44.5873C44.5572 25.8722 44.5265 25.8743 44.4973 25.8828C44.4681 25.8912 44.441 25.9059 44.418 25.9257C44.395 25.9455 44.3765 25.9701 44.3638 25.9977C44.3512 26.0253 44.3446 26.0554 44.3446 26.0857C44.3446 26.1161 44.3512 26.1461 44.3638 26.1738C44.3765 26.2014 44.395 26.2259 44.418 26.2458C44.441 26.2656 44.4681 26.2802 44.4973 26.2887C44.5265 26.2971 44.5572 26.2992 44.5873 26.2948H51.0259C51.056 26.2992 51.0867 26.2971 51.1159 26.2887C51.1451 26.2802 51.1721 26.2656 51.1952 26.2458C51.2182 26.2259 51.2367 26.2014 51.2493 26.1738C51.262 26.1461 51.2686 26.1161 51.2686 26.0857C51.2686 26.0554 51.262 26.0253 51.2493 25.9977C51.2367 25.9701 51.2182 25.9455 51.1952 25.9257C51.1721 25.9059 51.1451 25.8912 51.1159 25.8828C51.0867 25.8743 51.056 25.8722 51.0259 25.8767H50.5246V21.5953L50.5476 21.6045ZM50.2441 21.6045V25.647H49.7842V21.1956H50.2441C50.4573 21.1878 50.6668 21.1381 50.8608 21.0493C51.0547 20.9606 51.2293 20.8346 51.3745 20.6785C51.5197 20.5223 51.6327 20.3392 51.707 20.1394C51.7814 19.9397 51.8156 19.7273 51.8077 19.5143C51.7999 19.3014 51.7501 19.092 51.6613 18.8983C51.5724 18.7045 51.4463 18.5302 51.29 18.3851C51.1337 18.2401 50.9503 18.1273 50.7503 18.053C50.5503 17.9788 50.3377 17.9446 50.1245 17.9524V17.6538C50.3829 17.636 50.6422 17.6704 50.887 17.7549C51.1318 17.8395 51.357 17.9725 51.5492 18.1459C51.7414 18.3194 51.8966 18.5297 52.0055 18.7644C52.1144 18.9992 52.1749 19.2534 52.1833 19.512C52.1916 19.7706 52.1477 20.0282 52.0541 20.2694C51.9605 20.5107 51.8192 20.7306 51.6386 20.9161C51.4581 21.1015 51.2419 21.2487 51.0031 21.3488C50.7642 21.449 50.5077 21.5 50.2487 21.4988L50.2441 21.6045Z" fill="#F49618"/>
<path d="M38.4801 70.5304C38.4428 70.6085 38.4233 70.6939 38.4231 70.7805C38.4229 70.867 38.4419 70.9525 38.4789 71.0308C38.5159 71.1091 38.5699 71.1782 38.6369 71.2331C38.7039 71.2879 38.7823 71.3272 38.8664 71.3481C39.042 71.4261 39.2309 71.4697 39.4229 71.4767C39.4229 71.5502 39.4229 71.6283 39.4229 71.7064C39.1894 71.7001 38.9594 71.647 38.7468 71.5502C38.6249 71.5194 38.5115 71.4618 38.4148 71.3815C38.3181 71.3012 38.2407 71.2002 38.1882 71.0861C38.1357 70.972 38.1095 70.8475 38.1114 70.722C38.1134 70.5964 38.1435 70.4728 38.1996 70.3604C38.3 70.1424 38.4818 69.9723 38.7061 69.8865C38.9304 69.8007 39.1794 69.8059 39.3999 69.901C39.498 69.9382 39.5875 69.995 39.6629 70.0679C39.7383 70.1408 39.7981 70.2283 39.8385 70.325C39.879 70.4217 39.8993 70.5257 39.8982 70.6305C39.8971 70.7353 39.8747 70.8388 39.8322 70.9346C39.8322 70.9943 39.7862 71.0357 39.7724 71.0678C39.3217 70.907 38.8986 70.7325 38.4801 70.5304ZM39.5241 70.7371C39.5549 70.6785 39.5726 70.6139 39.5761 70.5478C39.5795 70.4817 39.5687 70.4157 39.5442 70.3541C39.5198 70.2926 39.4823 70.2371 39.4344 70.1914C39.3864 70.1457 39.3292 70.1109 39.2665 70.0894C39.1416 70.0388 39.0025 70.0356 38.8754 70.0805C38.7483 70.1253 38.6421 70.2151 38.5767 70.3328C38.8894 70.4844 39.2022 70.6177 39.5241 70.7417V70.7371Z" fill="#FE942A"/>
<path d="M40.5532 71.9687C40.6698 72.0902 40.8154 72.1803 40.9763 72.2305C41.2293 72.3086 41.381 72.2305 41.4362 72.0973C41.4914 71.9641 41.3994 71.8492 41.1741 71.693C40.8705 71.4863 40.7694 71.2704 40.8338 71.0821C40.8978 70.9426 41.0147 70.8342 41.1587 70.7808C41.3028 70.7274 41.4621 70.7333 41.6018 70.7972C41.7515 70.8395 41.8898 70.9149 42.0065 71.0177L41.8685 71.2153C41.7737 71.1217 41.6566 71.0537 41.5282 71.0177C41.335 70.9626 41.1971 71.0177 41.1603 71.1464C41.1235 71.275 41.2063 71.3806 41.4224 71.5276C41.7122 71.7298 41.8455 71.9135 41.7812 72.1616C41.7168 72.4097 41.3856 72.5888 40.9211 72.4464C40.7308 72.3931 40.5559 72.2955 40.4106 72.1616L40.5532 71.9687Z" fill="#FE942A"/>
<path d="M44.3473 70.7492L44.2554 71.2086L44.7153 71.2959L44.6739 71.5256L44.214 71.4383L44.0346 72.3571C43.9932 72.5638 44.0346 72.6924 44.2416 72.7292C44.3119 72.7365 44.3828 72.7365 44.4531 72.7292C44.4531 72.8027 44.4531 72.8807 44.4531 72.9588C44.3434 72.9762 44.2317 72.9762 44.122 72.9588C44.0436 72.9586 43.9665 72.9384 43.8982 72.9C43.8298 72.8617 43.7724 72.8065 43.7314 72.7398C43.6904 72.673 43.6672 72.5969 43.6639 72.5187C43.6606 72.4405 43.6774 72.3627 43.7127 72.2927C43.7817 71.9895 43.846 71.6864 43.9104 71.374L43.6299 71.3097L43.6851 71.08L43.961 71.1443L44.0484 70.7446L44.3473 70.7492Z" fill="#FE942A"/>
<path d="M46.3921 72.7635C46.408 72.7063 46.444 72.6567 46.4934 72.6238C46.5429 72.5908 46.6025 72.5766 46.6615 72.5839C46.7205 72.5911 46.775 72.6192 46.815 72.6632C46.855 72.7071 46.8779 72.7639 46.8796 72.8233C46.876 72.8547 46.8657 72.8851 46.8493 72.9122C46.833 72.9394 46.8109 72.9627 46.7847 72.9805C46.7586 72.9984 46.7288 73.0104 46.6976 73.0158C46.6663 73.0212 46.6343 73.0197 46.6036 73.0116C46.5727 73.0113 46.5422 73.0044 46.5142 72.9913C46.4862 72.9782 46.4613 72.9592 46.4413 72.9357C46.4212 72.9122 46.4064 72.8847 46.3979 72.855C46.3895 72.8253 46.3875 72.7941 46.3921 72.7635Z" fill="#FE942A"/>
<path d="M48.7119 70.5746L48.2888 70.7905C48.2888 70.7078 48.2474 70.6297 48.229 70.5516C48.4038 70.4643 48.5785 70.377 48.7487 70.2852H49.02L49.1028 72.5821H48.7487C48.7349 71.9068 48.7211 71.2407 48.7119 70.5746Z" fill="#FE942A"/>
<path d="M50.4151 72.4779C50.513 72.4727 50.6101 72.4573 50.7048 72.432C50.9046 72.388 51.086 72.2838 51.2245 72.1334C51.3861 71.9537 51.4703 71.7177 51.459 71.4765C51.397 71.5715 51.3143 71.6513 51.2172 71.7102C51.1201 71.769 51.011 71.8053 50.898 71.8164C50.8036 71.8386 50.7056 71.8401 50.6106 71.8208C50.5156 71.8016 50.4259 71.762 50.3477 71.7048C50.2695 71.6476 50.2046 71.5742 50.1575 71.4896C50.1103 71.405 50.0821 71.3112 50.0747 71.2146C50.0487 70.9979 50.1095 70.7797 50.2439 70.6076C50.3783 70.4355 50.5754 70.3234 50.7922 70.2959C51.2521 70.2224 51.6338 70.5302 51.7534 71.1044C51.8056 71.2997 51.8112 71.5046 51.7697 71.7025C51.7281 71.9004 51.6406 72.0857 51.5142 72.2437C51.3213 72.4549 51.0674 72.601 50.7876 72.6617C50.6776 72.6911 50.5653 72.711 50.4519 72.7214L50.4151 72.4779ZM50.4151 71.1549C50.4198 71.2194 50.4381 71.2821 50.4687 71.3389C50.4994 71.3958 50.5417 71.4456 50.5929 71.4851C50.6441 71.5245 50.7031 71.5528 50.7659 71.5679C50.8288 71.583 50.8942 71.5847 50.9578 71.5729C51.0553 71.5644 51.149 71.5307 51.2296 71.4752C51.3102 71.4196 51.375 71.3441 51.4177 71.256C51.4296 71.2187 51.4296 71.1785 51.4177 71.1412C51.3487 70.7553 51.1463 70.4934 50.8106 70.5439C50.7418 70.5542 50.6759 70.5786 50.6169 70.6155C50.558 70.6524 50.5073 70.701 50.468 70.7584C50.4288 70.8157 50.4018 70.8805 50.3887 70.9487C50.3756 71.017 50.3768 71.0872 50.3921 71.1549H50.4151Z" fill="#FE942A"/>
<path d="M52.9879 71.7796C52.9637 71.6381 52.9848 71.4926 53.0485 71.3638C53.1121 71.2351 53.2148 71.1298 53.3421 71.063C53.2256 71.0582 53.1138 71.0164 53.0228 70.9437C52.9318 70.8709 52.8664 70.7711 52.8362 70.6587C52.8224 70.5703 52.8263 70.4801 52.8476 70.3932C52.8688 70.3063 52.907 70.2245 52.96 70.1523C53.013 70.0802 53.0797 70.0192 53.1563 69.9729C53.2329 69.9266 53.3179 69.8958 53.4064 69.8824C53.4826 69.8475 53.5651 69.8283 53.6489 69.8259C53.7326 69.8235 53.816 69.838 53.8941 69.8684C53.9722 69.8988 54.0433 69.9446 54.1034 70.0031C54.1634 70.0615 54.211 70.1314 54.2435 70.2086C54.278 70.3256 54.2744 70.4506 54.233 70.5654C54.1917 70.6802 54.1148 70.7788 54.0135 70.8471C54.1546 70.834 54.2962 70.8656 54.4183 70.9374C54.5405 71.0091 54.6369 71.1173 54.6942 71.2468C54.8275 71.6234 54.524 72.0139 54.0181 72.1655C53.5122 72.3171 53.0569 72.0828 52.9879 71.7796ZM54.3676 71.3892C54.2849 71.1273 54.0319 71.0676 53.6778 71.0768C53.4064 71.2329 53.2915 71.4397 53.3467 71.651C53.4018 71.8623 53.641 72.0323 53.9721 71.9358C54.3033 71.8394 54.4274 71.5959 54.3538 71.3708L54.3676 71.3892ZM53.1397 70.5531C53.1949 70.7736 53.4064 70.8517 53.71 70.8379C53.8017 70.7922 53.8755 70.7172 53.9196 70.6248C53.9638 70.5324 53.9758 70.428 53.9537 70.328C53.939 70.2777 53.9139 70.2311 53.8799 70.1913C53.8459 70.1514 53.8039 70.1191 53.7566 70.0965C53.7093 70.074 53.6577 70.0617 53.6053 70.0604C53.5529 70.0591 53.5008 70.0689 53.4524 70.0891C53.4012 70.0958 53.3518 70.1127 53.3073 70.139C53.2628 70.1653 53.2241 70.2003 53.1936 70.242C53.163 70.2837 53.1413 70.3311 53.1297 70.3814C53.118 70.4317 53.1168 70.4839 53.1259 70.5347L53.1397 70.5531Z" fill="#FE942A"/>
<path d="M55.8035 71.4414L55.7345 71.2623C55.7989 71.1566 55.8587 71.0509 55.9185 70.9407C56.3554 70.1735 56.4842 69.7785 56.3462 69.4615C56.3232 69.4024 56.2876 69.3491 56.2417 69.3054C56.1958 69.2616 56.1409 69.2285 56.0807 69.2083C56.0206 69.1882 55.9568 69.1814 55.8938 69.1887C55.8307 69.1959 55.7701 69.2169 55.7161 69.2502C55.544 69.3305 55.401 69.4621 55.3068 69.6269L55.1274 69.4569C55.2583 69.2512 55.4494 69.0908 55.6747 68.9975C55.7565 68.9509 55.847 68.9214 55.9406 68.911C56.0342 68.9006 56.1289 68.9094 56.219 68.9369C56.309 68.9645 56.3925 69.0101 56.4642 69.0711C56.5359 69.1321 56.5943 69.2071 56.6359 69.2915C56.8199 69.6682 56.6681 70.1322 56.3232 70.7799L56.1898 71.0188C56.5715 70.8672 56.9441 70.7018 57.312 70.5227L57.4223 70.7524C56.8935 71.005 56.3508 71.2393 55.8035 71.4414Z" fill="#FE942A"/>
<path d="M37.0763 41C36.5909 41 36.2149 40.8453 35.9483 40.536C35.7189 40.2693 35.6043 39.9253 35.6043 39.504V36.368L36.6123 35.84V39.456C36.6123 39.664 36.6549 39.8133 36.7403 39.904C36.8256 39.9893 36.9696 40.032 37.1723 40.032H37.8923V41H37.0763ZM38.9779 36.64C38.8179 36.64 38.6899 36.592 38.5939 36.496C38.4979 36.4 38.4499 36.2693 38.4499 36.104C38.4499 35.9493 38.4979 35.824 38.5939 35.728C38.6899 35.632 38.8179 35.584 38.9779 35.584C39.1379 35.584 39.2632 35.632 39.3539 35.728C39.4499 35.8187 39.4979 35.944 39.4979 36.104C39.4979 36.4613 39.3246 36.64 38.9779 36.64ZM40.2579 40.032H40.9779V41H40.1619C39.7726 41 39.4499 40.896 39.1939 40.688C38.9379 40.896 38.6152 41 38.2259 41H37.4099V40.032H38.1299C38.3326 40.032 38.4766 39.9893 38.5619 39.904C38.6472 39.8133 38.6899 39.664 38.6899 39.456V37.976L39.6979 37.448V39.456C39.6979 39.664 39.7406 39.8133 39.8259 39.904C39.9112 39.9893 40.0552 40.032 40.2579 40.032ZM45.5838 40.032H46.2958V41H45.4798C45.0958 41 44.7812 40.9013 44.5358 40.704C44.2478 41.008 43.8692 41.16 43.3998 41.16C42.9198 41.16 42.5412 41.008 42.2638 40.704C42.0078 40.9013 41.6905 41 41.3118 41H40.4958V40.032H41.2158C41.4185 40.032 41.5625 39.9893 41.6478 39.904C41.7332 39.8133 41.7758 39.664 41.7758 39.456V39.224C41.7758 38.6 41.9385 38.1147 42.2638 37.768C42.5465 37.464 42.9252 37.312 43.3998 37.312C43.9385 37.312 44.3545 37.5093 44.6478 37.904C44.8932 38.24 45.0158 38.68 45.0158 39.224V39.456C45.0158 39.664 45.0585 39.8133 45.1438 39.904C45.2345 39.9893 45.3812 40.032 45.5838 40.032ZM43.3998 40.192C43.8052 40.192 44.0078 39.8613 44.0078 39.2C44.0078 38.5653 43.8052 38.248 43.3998 38.248C42.9892 38.248 42.7838 38.5653 42.7838 39.2C42.7838 39.8613 42.9892 40.192 43.3998 40.192ZM49.7442 40.032H51.9442L51.9602 41H49.6482C49.3762 41 49.1202 40.9333 48.8802 40.8C48.6295 40.9333 48.3735 41 48.1122 41H45.8162V40.032H47.9922C47.7522 39.8667 47.5522 39.7093 47.3922 39.56C47.3015 39.48 47.1628 39.3307 46.9762 39.112C46.9175 39.0427 46.8695 38.9867 46.8322 38.944V38.488C47.0668 38.1307 47.3682 37.8453 47.7362 37.632C48.1095 37.4187 48.4908 37.312 48.8802 37.312C49.2642 37.312 49.6428 37.4213 50.0162 37.64C50.3895 37.8533 50.6988 38.1413 50.9442 38.504V38.944C50.5868 39.376 50.1868 39.7387 49.7442 40.032ZM48.8722 39.648C49.2722 39.3333 49.5682 39.016 49.7602 38.696C49.4402 38.3973 49.1388 38.248 48.8562 38.248C48.5842 38.248 48.3015 38.3973 48.0082 38.696C48.2162 39.064 48.5042 39.3813 48.8722 39.648ZM58.4482 40.032H59.1682V41H58.3522C57.9682 41 57.6535 40.9013 57.4082 40.704C57.1629 40.9013 56.8562 41 56.4882 41H51.4802V40.032H52.9122L53.0082 39.76V36.376L54.0162 35.84V38.144C54.5602 37.5893 55.1842 37.312 55.8882 37.312C56.5229 37.312 57.0269 37.5307 57.4002 37.968C57.7202 38.336 57.8802 38.792 57.8802 39.336V39.504C57.8802 39.856 58.0695 40.032 58.4482 40.032ZM56.4482 40.032C56.6242 40.032 56.7389 39.9973 56.7922 39.928C56.8509 39.8587 56.8802 39.712 56.8802 39.488V39.336C56.8802 39.016 56.7869 38.7547 56.6002 38.552C56.4189 38.3493 56.1842 38.248 55.8962 38.248C55.5282 38.248 55.1762 38.384 54.8402 38.656C54.5095 38.928 54.2349 39.304 54.0162 39.784V40.032H56.4482ZM59.9712 38.792C59.9712 38.312 60.1205 37.936 60.4192 37.664C60.6805 37.4293 61.0165 37.312 61.4272 37.312C61.9552 37.312 62.3658 37.5067 62.6592 37.896C62.9098 38.2213 63.0352 38.64 63.0352 39.152C63.0352 39.744 62.8778 40.2107 62.5632 40.552C62.2805 40.8507 61.9205 41 61.4832 41C61.0565 41 60.7072 40.9067 60.4352 40.72C60.1792 40.9067 59.8698 41 59.5072 41H58.6912V40.032H59.4112C59.6138 40.032 59.7578 39.9893 59.8432 39.904C59.9285 39.8133 59.9712 39.664 59.9712 39.456V38.792ZM60.9792 39.584C60.9792 39.8827 61.1365 40.032 61.4512 40.032C61.8458 40.032 62.0432 39.728 62.0432 39.12C62.0432 38.5387 61.8378 38.248 61.4272 38.248C61.1285 38.248 60.9792 38.424 60.9792 38.776V39.584Z" fill="#F49618"/>
</g>
<defs>
<clipPath id="clip0_1_2581">
<rect width="96" height="73" fill="white"/>
</clipPath>
</defs>
</svg>
